# Historical Monument 3D Reconstruction Model
mtllib HistoricalMonument.mtl
o Monument3D
v -1.6000 0.0000 -1.1000
v -1.6000 0.0000 1.1000
v -1.6000 0.1000 -1.1000
v -1.6000 0.1000 1.1000
v 1.6000 0.0000 -1.1000
v 1.6000 0.0000 1.1000
v 1.6000 0.1000 -1.1000
v 1.6000 0.1000 1.1000
v -1.5000 0.1000 -1.0000
v -1.5000 0.1000 1.0000
v -1.5000 0.2000 -1.0000
v -1.5000 0.2000 1.0000
v 1.5000 0.1000 -1.0000
v 1.5000 0.1000 1.0000
v 1.5000 0.2000 -1.0000
v 1.5000 0.2000 1.0000
v -1.4000 0.2000 -0.9000
v -1.4000 0.2000 0.9000
v -1.4000 0.3000 -0.9000
v -1.4000 0.3000 0.9000
v 1.4000 0.2000 -0.9000
v 1.4000 0.2000 0.9000
v 1.4000 0.3000 -0.9000
v 1.4000 0.3000 0.9000
v -1.0000 0.3000 -0.5500
v -1.0000 0.3000 0.5500
v -1.0000 1.4000 -0.5500
v -1.0000 1.4000 0.5500
v 1.0000 0.3000 -0.5500
v 1.0000 0.3000 0.5500
v 1.0000 1.4000 -0.5500
v 1.0000 1.4000 0.5500
v -1.1250 0.3000 -0.7500
v -1.1393 0.3000 -0.7059
v -1.1768 0.3000 -0.6787
v -1.2232 0.3000 -0.6787
v -1.2607 0.3000 -0.7059
v -1.2750 0.3000 -0.7500
v -1.2607 0.3000 -0.7941
v -1.2232 0.3000 -0.8213
v -1.1768 0.3000 -0.8213
v -1.1393 0.3000 -0.7941
v -1.1250 1.4000 -0.7500
v -1.1393 1.4000 -0.7059
v -1.1768 1.4000 -0.6787
v -1.2232 1.4000 -0.6787
v -1.2607 1.4000 -0.7059
v -1.2750 1.4000 -0.7500
v -1.2607 1.4000 -0.7941
v -1.2232 1.4000 -0.8213
v -1.1768 1.4000 -0.8213
v -1.1393 1.4000 -0.7941
v -1.3000 0.3000 -0.8500
v -1.3000 0.3000 -0.6500
v -1.3000 0.3400 -0.8500
v -1.3000 0.3400 -0.6500
v -1.1000 0.3000 -0.8500
v -1.1000 0.3000 -0.6500
v -1.1000 0.3400 -0.8500
v -1.1000 0.3400 -0.6500
v -1.3000 1.3600 -0.8500
v -1.3000 1.3600 -0.6500
v -1.3000 1.4000 -0.8500
v -1.3000 1.4000 -0.6500
v -1.1000 1.3600 -0.8500
v -1.1000 1.3600 -0.6500
v -1.1000 1.4000 -0.8500
v -1.1000 1.4000 -0.6500
v -1.1250 0.3000 0.7500
v -1.1393 0.3000 0.7941
v -1.1768 0.3000 0.8213
v -1.2232 0.3000 0.8213
v -1.2607 0.3000 0.7941
v -1.2750 0.3000 0.7500
v -1.2607 0.3000 0.7059
v -1.2232 0.3000 0.6787
v -1.1768 0.3000 0.6787
v -1.1393 0.3000 0.7059
v -1.1250 1.4000 0.7500
v -1.1393 1.4000 0.7941
v -1.1768 1.4000 0.8213
v -1.2232 1.4000 0.8213
v -1.2607 1.4000 0.7941
v -1.2750 1.4000 0.7500
v -1.2607 1.4000 0.7059
v -1.2232 1.4000 0.6787
v -1.1768 1.4000 0.6787
v -1.1393 1.4000 0.7059
v -1.3000 0.3000 0.6500
v -1.3000 0.3000 0.8500
v -1.3000 0.3400 0.6500
v -1.3000 0.3400 0.8500
v -1.1000 0.3000 0.6500
v -1.1000 0.3000 0.8500
v -1.1000 0.3400 0.6500
v -1.1000 0.3400 0.8500
v -1.3000 1.3600 0.6500
v -1.3000 1.3600 0.8500
v -1.3000 1.4000 0.6500
v -1.3000 1.4000 0.8500
v -1.1000 1.3600 0.6500
v -1.1000 1.3600 0.8500
v -1.1000 1.4000 0.6500
v -1.1000 1.4000 0.8500
v -0.6450 0.3000 -0.7500
v -0.6593 0.3000 -0.7059
v -0.6968 0.3000 -0.6787
v -0.7432 0.3000 -0.6787
v -0.7807 0.3000 -0.7059
v -0.7950 0.3000 -0.7500
v -0.7807 0.3000 -0.7941
v -0.7432 0.3000 -0.8213
v -0.6968 0.3000 -0.8213
v -0.6593 0.3000 -0.7941
v -0.6450 1.4000 -0.7500
v -0.6593 1.4000 -0.7059
v -0.6968 1.4000 -0.6787
v -0.7432 1.4000 -0.6787
v -0.7807 1.4000 -0.7059
v -0.7950 1.4000 -0.7500
v -0.7807 1.4000 -0.7941
v -0.7432 1.4000 -0.8213
v -0.6968 1.4000 -0.8213
v -0.6593 1.4000 -0.7941
v -0.8200 0.3000 -0.8500
v -0.8200 0.3000 -0.6500
v -0.8200 0.3400 -0.8500
v -0.8200 0.3400 -0.6500
v -0.6200 0.3000 -0.8500
v -0.6200 0.3000 -0.6500
v -0.6200 0.3400 -0.8500
v -0.6200 0.3400 -0.6500
v -0.8200 1.3600 -0.8500
v -0.8200 1.3600 -0.6500
v -0.8200 1.4000 -0.8500
v -0.8200 1.4000 -0.6500
v -0.6200 1.3600 -0.8500
v -0.6200 1.3600 -0.6500
v -0.6200 1.4000 -0.8500
v -0.6200 1.4000 -0.6500
v -0.6450 0.3000 0.7500
v -0.6593 0.3000 0.7941
v -0.6968 0.3000 0.8213
v -0.7432 0.3000 0.8213
v -0.7807 0.3000 0.7941
v -0.7950 0.3000 0.7500
v -0.7807 0.3000 0.7059
v -0.7432 0.3000 0.6787
v -0.6968 0.3000 0.6787
v -0.6593 0.3000 0.7059
v -0.6450 1.4000 0.7500
v -0.6593 1.4000 0.7941
v -0.6968 1.4000 0.8213
v -0.7432 1.4000 0.8213
v -0.7807 1.4000 0.7941
v -0.7950 1.4000 0.7500
v -0.7807 1.4000 0.7059
v -0.7432 1.4000 0.6787
v -0.6968 1.4000 0.6787
v -0.6593 1.4000 0.7059
v -0.8200 0.3000 0.6500
v -0.8200 0.3000 0.8500
v -0.8200 0.3400 0.6500
v -0.8200 0.3400 0.8500
v -0.6200 0.3000 0.6500
v -0.6200 0.3000 0.8500
v -0.6200 0.3400 0.6500
v -0.6200 0.3400 0.8500
v -0.8200 1.3600 0.6500
v -0.8200 1.3600 0.8500
v -0.8200 1.4000 0.6500
v -0.8200 1.4000 0.8500
v -0.6200 1.3600 0.6500
v -0.6200 1.3600 0.8500
v -0.6200 1.4000 0.6500
v -0.6200 1.4000 0.8500
v -0.1650 0.3000 -0.7500
v -0.1793 0.3000 -0.7059
v -0.2168 0.3000 -0.6787
v -0.2632 0.3000 -0.6787
v -0.3007 0.3000 -0.7059
v -0.3150 0.3000 -0.7500
v -0.3007 0.3000 -0.7941
v -0.2632 0.3000 -0.8213
v -0.2168 0.3000 -0.8213
v -0.1793 0.3000 -0.7941
v -0.1650 1.4000 -0.7500
v -0.1793 1.4000 -0.7059
v -0.2168 1.4000 -0.6787
v -0.2632 1.4000 -0.6787
v -0.3007 1.4000 -0.7059
v -0.3150 1.4000 -0.7500
v -0.3007 1.4000 -0.7941
v -0.2632 1.4000 -0.8213
v -0.2168 1.4000 -0.8213
v -0.1793 1.4000 -0.7941
v -0.3400 0.3000 -0.8500
v -0.3400 0.3000 -0.6500
v -0.3400 0.3400 -0.8500
v -0.3400 0.3400 -0.6500
v -0.1400 0.3000 -0.8500
v -0.1400 0.3000 -0.6500
v -0.1400 0.3400 -0.8500
v -0.1400 0.3400 -0.6500
v -0.3400 1.3600 -0.8500
v -0.3400 1.3600 -0.6500
v -0.3400 1.4000 -0.8500
v -0.3400 1.4000 -0.6500
v -0.1400 1.3600 -0.8500
v -0.1400 1.3600 -0.6500
v -0.1400 1.4000 -0.8500
v -0.1400 1.4000 -0.6500
v -0.1650 0.3000 0.7500
v -0.1793 0.3000 0.7941
v -0.2168 0.3000 0.8213
v -0.2632 0.3000 0.8213
v -0.3007 0.3000 0.7941
v -0.3150 0.3000 0.7500
v -0.3007 0.3000 0.7059
v -0.2632 0.3000 0.6787
v -0.2168 0.3000 0.6787
v -0.1793 0.3000 0.7059
v -0.1650 1.4000 0.7500
v -0.1793 1.4000 0.7941
v -0.2168 1.4000 0.8213
v -0.2632 1.4000 0.8213
v -0.3007 1.4000 0.7941
v -0.3150 1.4000 0.7500
v -0.3007 1.4000 0.7059
v -0.2632 1.4000 0.6787
v -0.2168 1.4000 0.6787
v -0.1793 1.4000 0.7059
v -0.3400 0.3000 0.6500
v -0.3400 0.3000 0.8500
v -0.3400 0.3400 0.6500
v -0.3400 0.3400 0.8500
v -0.1400 0.3000 0.6500
v -0.1400 0.3000 0.8500
v -0.1400 0.3400 0.6500
v -0.1400 0.3400 0.8500
v -0.3400 1.3600 0.6500
v -0.3400 1.3600 0.8500
v -0.3400 1.4000 0.6500
v -0.3400 1.4000 0.8500
v -0.1400 1.3600 0.6500
v -0.1400 1.3600 0.8500
v -0.1400 1.4000 0.6500
v -0.1400 1.4000 0.8500
v 0.3150 0.3000 -0.7500
v 0.3007 0.3000 -0.7059
v 0.2632 0.3000 -0.6787
v 0.2168 0.3000 -0.6787
v 0.1793 0.3000 -0.7059
v 0.1650 0.3000 -0.7500
v 0.1793 0.3000 -0.7941
v 0.2168 0.3000 -0.8213
v 0.2632 0.3000 -0.8213
v 0.3007 0.3000 -0.7941
v 0.3150 1.4000 -0.7500
v 0.3007 1.4000 -0.7059
v 0.2632 1.4000 -0.6787
v 0.2168 1.4000 -0.6787
v 0.1793 1.4000 -0.7059
v 0.1650 1.4000 -0.7500
v 0.1793 1.4000 -0.7941
v 0.2168 1.4000 -0.8213
v 0.2632 1.4000 -0.8213
v 0.3007 1.4000 -0.7941
v 0.1400 0.3000 -0.8500
v 0.1400 0.3000 -0.6500
v 0.1400 0.3400 -0.8500
v 0.1400 0.3400 -0.6500
v 0.3400 0.3000 -0.8500
v 0.3400 0.3000 -0.6500
v 0.3400 0.3400 -0.8500
v 0.3400 0.3400 -0.6500
v 0.1400 1.3600 -0.8500
v 0.1400 1.3600 -0.6500
v 0.1400 1.4000 -0.8500
v 0.1400 1.4000 -0.6500
v 0.3400 1.3600 -0.8500
v 0.3400 1.3600 -0.6500
v 0.3400 1.4000 -0.8500
v 0.3400 1.4000 -0.6500
v 0.3150 0.3000 0.7500
v 0.3007 0.3000 0.7941
v 0.2632 0.3000 0.8213
v 0.2168 0.3000 0.8213
v 0.1793 0.3000 0.7941
v 0.1650 0.3000 0.7500
v 0.1793 0.3000 0.7059
v 0.2168 0.3000 0.6787
v 0.2632 0.3000 0.6787
v 0.3007 0.3000 0.7059
v 0.3150 1.4000 0.7500
v 0.3007 1.4000 0.7941
v 0.2632 1.4000 0.8213
v 0.2168 1.4000 0.8213
v 0.1793 1.4000 0.7941
v 0.1650 1.4000 0.7500
v 0.1793 1.4000 0.7059
v 0.2168 1.4000 0.6787
v 0.2632 1.4000 0.6787
v 0.3007 1.4000 0.7059
v 0.1400 0.3000 0.6500
v 0.1400 0.3000 0.8500
v 0.1400 0.3400 0.6500
v 0.1400 0.3400 0.8500
v 0.3400 0.3000 0.6500
v 0.3400 0.3000 0.8500
v 0.3400 0.3400 0.6500
v 0.3400 0.3400 0.8500
v 0.1400 1.3600 0.6500
v 0.1400 1.3600 0.8500
v 0.1400 1.4000 0.6500
v 0.1400 1.4000 0.8500
v 0.3400 1.3600 0.6500
v 0.3400 1.3600 0.8500
v 0.3400 1.4000 0.6500
v 0.3400 1.4000 0.8500
v 0.7950 0.3000 -0.7500
v 0.7807 0.3000 -0.7059
v 0.7432 0.3000 -0.6787
v 0.6968 0.3000 -0.6787
v 0.6593 0.3000 -0.7059
v 0.6450 0.3000 -0.7500
v 0.6593 0.3000 -0.7941
v 0.6968 0.3000 -0.8213
v 0.7432 0.3000 -0.8213
v 0.7807 0.3000 -0.7941
v 0.7950 1.4000 -0.7500
v 0.7807 1.4000 -0.7059
v 0.7432 1.4000 -0.6787
v 0.6968 1.4000 -0.6787
v 0.6593 1.4000 -0.7059
v 0.6450 1.4000 -0.7500
v 0.6593 1.4000 -0.7941
v 0.6968 1.4000 -0.8213
v 0.7432 1.4000 -0.8213
v 0.7807 1.4000 -0.7941
v 0.6200 0.3000 -0.8500
v 0.6200 0.3000 -0.6500
v 0.6200 0.3400 -0.8500
v 0.6200 0.3400 -0.6500
v 0.8200 0.3000 -0.8500
v 0.8200 0.3000 -0.6500
v 0.8200 0.3400 -0.8500
v 0.8200 0.3400 -0.6500
v 0.6200 1.3600 -0.8500
v 0.6200 1.3600 -0.6500
v 0.6200 1.4000 -0.8500
v 0.6200 1.4000 -0.6500
v 0.8200 1.3600 -0.8500
v 0.8200 1.3600 -0.6500
v 0.8200 1.4000 -0.8500
v 0.8200 1.4000 -0.6500
v 0.7950 0.3000 0.7500
v 0.7807 0.3000 0.7941
v 0.7432 0.3000 0.8213
v 0.6968 0.3000 0.8213
v 0.6593 0.3000 0.7941
v 0.6450 0.3000 0.7500
v 0.6593 0.3000 0.7059
v 0.6968 0.3000 0.6787
v 0.7432 0.3000 0.6787
v 0.7807 0.3000 0.7059
v 0.7950 1.4000 0.7500
v 0.7807 1.4000 0.7941
v 0.7432 1.4000 0.8213
v 0.6968 1.4000 0.8213
v 0.6593 1.4000 0.7941
v 0.6450 1.4000 0.7500
v 0.6593 1.4000 0.7059
v 0.6968 1.4000 0.6787
v 0.7432 1.4000 0.6787
v 0.7807 1.4000 0.7059
v 0.6200 0.3000 0.6500
v 0.6200 0.3000 0.8500
v 0.6200 0.3400 0.6500
v 0.6200 0.3400 0.8500
v 0.8200 0.3000 0.6500
v 0.8200 0.3000 0.8500
v 0.8200 0.3400 0.6500
v 0.8200 0.3400 0.8500
v 0.6200 1.3600 0.6500
v 0.6200 1.3600 0.8500
v 0.6200 1.4000 0.6500
v 0.6200 1.4000 0.8500
v 0.8200 1.3600 0.6500
v 0.8200 1.3600 0.8500
v 0.8200 1.4000 0.6500
v 0.8200 1.4000 0.8500
v 1.2750 0.3000 -0.7500
v 1.2607 0.3000 -0.7059
v 1.2232 0.3000 -0.6787
v 1.1768 0.3000 -0.6787
v 1.1393 0.3000 -0.7059
v 1.1250 0.3000 -0.7500
v 1.1393 0.3000 -0.7941
v 1.1768 0.3000 -0.8213
v 1.2232 0.3000 -0.8213
v 1.2607 0.3000 -0.7941
v 1.2750 1.4000 -0.7500
v 1.2607 1.4000 -0.7059
v 1.2232 1.4000 -0.6787
v 1.1768 1.4000 -0.6787
v 1.1393 1.4000 -0.7059
v 1.1250 1.4000 -0.7500
v 1.1393 1.4000 -0.7941
v 1.1768 1.4000 -0.8213
v 1.2232 1.4000 -0.8213
v 1.2607 1.4000 -0.7941
v 1.1000 0.3000 -0.8500
v 1.1000 0.3000 -0.6500
v 1.1000 0.3400 -0.8500
v 1.1000 0.3400 -0.6500
v 1.3000 0.3000 -0.8500
v 1.3000 0.3000 -0.6500
v 1.3000 0.3400 -0.8500
v 1.3000 0.3400 -0.6500
v 1.1000 1.3600 -0.8500
v 1.1000 1.3600 -0.6500
v 1.1000 1.4000 -0.8500
v 1.1000 1.4000 -0.6500
v 1.3000 1.3600 -0.8500
v 1.3000 1.3600 -0.6500
v 1.3000 1.4000 -0.8500
v 1.3000 1.4000 -0.6500
v 1.2750 0.3000 0.7500
v 1.2607 0.3000 0.7941
v 1.2232 0.3000 0.8213
v 1.1768 0.3000 0.8213
v 1.1393 0.3000 0.7941
v 1.1250 0.3000 0.7500
v 1.1393 0.3000 0.7059
v 1.1768 0.3000 0.6787
v 1.2232 0.3000 0.6787
v 1.2607 0.3000 0.7059
v 1.2750 1.4000 0.7500
v 1.2607 1.4000 0.7941
v 1.2232 1.4000 0.8213
v 1.1768 1.4000 0.8213
v 1.1393 1.4000 0.7941
v 1.1250 1.4000 0.7500
v 1.1393 1.4000 0.7059
v 1.1768 1.4000 0.6787
v 1.2232 1.4000 0.6787
v 1.2607 1.4000 0.7059
v 1.1000 0.3000 0.6500
v 1.1000 0.3000 0.8500
v 1.1000 0.3400 0.6500
v 1.1000 0.3400 0.8500
v 1.3000 0.3000 0.6500
v 1.3000 0.3000 0.8500
v 1.3000 0.3400 0.6500
v 1.3000 0.3400 0.8500
v 1.1000 1.3600 0.6500
v 1.1000 1.3600 0.8500
v 1.1000 1.4000 0.6500
v 1.1000 1.4000 0.8500
v 1.3000 1.3600 0.6500
v 1.3000 1.3600 0.8500
v 1.3000 1.4000 0.6500
v 1.3000 1.4000 0.8500
v -1.1250 0.3000 0.0000
v -1.1393 0.3000 0.0441
v -1.1768 0.3000 0.0713
v -1.2232 0.3000 0.0713
v -1.2607 0.3000 0.0441
v -1.2750 0.3000 0.0000
v -1.2607 0.3000 -0.0441
v -1.2232 0.3000 -0.0713
v -1.1768 0.3000 -0.0713
v -1.1393 0.3000 -0.0441
v -1.1250 1.4000 0.0000
v -1.1393 1.4000 0.0441
v -1.1768 1.4000 0.0713
v -1.2232 1.4000 0.0713
v -1.2607 1.4000 0.0441
v -1.2750 1.4000 0.0000
v -1.2607 1.4000 -0.0441
v -1.2232 1.4000 -0.0713
v -1.1768 1.4000 -0.0713
v -1.1393 1.4000 -0.0441
v -1.3000 0.3000 -0.1000
v -1.3000 0.3000 0.1000
v -1.3000 0.3400 -0.1000
v -1.3000 0.3400 0.1000
v -1.1000 0.3000 -0.1000
v -1.1000 0.3000 0.1000
v -1.1000 0.3400 -0.1000
v -1.1000 0.3400 0.1000
v -1.3000 1.3600 -0.1000
v -1.3000 1.3600 0.1000
v -1.3000 1.4000 -0.1000
v -1.3000 1.4000 0.1000
v -1.1000 1.3600 -0.1000
v -1.1000 1.3600 0.1000
v -1.1000 1.4000 -0.1000
v -1.1000 1.4000 0.1000
v 1.2750 0.3000 0.0000
v 1.2607 0.3000 0.0441
v 1.2232 0.3000 0.0713
v 1.1768 0.3000 0.0713
v 1.1393 0.3000 0.0441
v 1.1250 0.3000 0.0000
v 1.1393 0.3000 -0.0441
v 1.1768 0.3000 -0.0713
v 1.2232 0.3000 -0.0713
v 1.2607 0.3000 -0.0441
v 1.2750 1.4000 0.0000
v 1.2607 1.4000 0.0441
v 1.2232 1.4000 0.0713
v 1.1768 1.4000 0.0713
v 1.1393 1.4000 0.0441
v 1.1250 1.4000 0.0000
v 1.1393 1.4000 -0.0441
v 1.1768 1.4000 -0.0713
v 1.2232 1.4000 -0.0713
v 1.2607 1.4000 -0.0441
v 1.1000 0.3000 -0.1000
v 1.1000 0.3000 0.1000
v 1.1000 0.3400 -0.1000
v 1.1000 0.3400 0.1000
v 1.3000 0.3000 -0.1000
v 1.3000 0.3000 0.1000
v 1.3000 0.3400 -0.1000
v 1.3000 0.3400 0.1000
v 1.1000 1.3600 -0.1000
v 1.1000 1.3600 0.1000
v 1.1000 1.4000 -0.1000
v 1.1000 1.4000 0.1000
v 1.3000 1.3600 -0.1000
v 1.3000 1.3600 0.1000
v 1.3000 1.4000 -0.1000
v 1.3000 1.4000 0.1000
v -1.4250 1.3900 -0.9250
v -1.4250 1.3900 0.9250
v -1.4250 1.5100 -0.9250
v -1.4250 1.5100 0.9250
v 1.4250 1.3900 -0.9250
v 1.4250 1.3900 0.9250
v 1.4250 1.5100 -0.9250
v 1.4250 1.5100 0.9250
v -1.4750 1.5100 -0.9750
v -1.4750 1.5100 0.9750
v -1.4750 1.5900 -0.9750
v -1.4750 1.5900 0.9750
v 1.4750 1.5100 -0.9750
v 1.4750 1.5100 0.9750
v 1.4750 1.5900 -0.9750
v 1.4750 1.5900 0.9750
v -1.4750 1.5900 -0.9750
v 1.4750 1.5900 -0.9750
v 1.4750 1.5900 0.9750
v -1.4750 1.5900 0.9750
v -1.4750 2.1900 0.0000
v 1.4750 2.1900 0.0000
usemtl MonumentStone
s 1
f 2 4 8
f 2 8 6
f 1 5 7
f 1 7 3
f 1 3 4
f 1 4 2
f 5 6 8
f 5 8 7
f 3 7 8
f 3 8 4
f 1 2 6
f 1 6 5
f 10 12 16
f 10 16 14
f 9 13 15
f 9 15 11
f 9 11 12
f 9 12 10
f 13 14 16
f 13 16 15
f 11 15 16
f 11 16 12
f 9 10 14
f 9 14 13
f 18 20 24
f 18 24 22
f 17 21 23
f 17 23 19
f 17 19 20
f 17 20 18
f 21 22 24
f 21 24 23
f 19 23 24
f 19 24 20
f 17 18 22
f 17 22 21
f 26 28 32
f 26 32 30
f 25 29 31
f 25 31 27
f 25 27 28
f 25 28 26
f 29 30 32
f 29 32 31
f 27 31 32
f 27 32 28
f 25 26 30
f 25 30 29
f 33 34 44
f 33 44 43
f 34 35 45
f 34 45 44
f 35 36 46
f 35 46 45
f 36 37 47
f 36 47 46
f 37 38 48
f 37 48 47
f 38 39 49
f 38 49 48
f 39 40 50
f 39 50 49
f 40 41 51
f 40 51 50
f 41 42 52
f 41 52 51
f 42 33 43
f 42 43 52
f 54 56 60
f 54 60 58
f 53 57 59
f 53 59 55
f 53 55 56
f 53 56 54
f 57 58 60
f 57 60 59
f 55 59 60
f 55 60 56
f 53 54 58
f 53 58 57
f 62 64 68
f 62 68 66
f 61 65 67
f 61 67 63
f 61 63 64
f 61 64 62
f 65 66 68
f 65 68 67
f 63 67 68
f 63 68 64
f 61 62 66
f 61 66 65
f 69 70 80
f 69 80 79
f 70 71 81
f 70 81 80
f 71 72 82
f 71 82 81
f 72 73 83
f 72 83 82
f 73 74 84
f 73 84 83
f 74 75 85
f 74 85 84
f 75 76 86
f 75 86 85
f 76 77 87
f 76 87 86
f 77 78 88
f 77 88 87
f 78 69 79
f 78 79 88
f 90 92 96
f 90 96 94
f 89 93 95
f 89 95 91
f 89 91 92
f 89 92 90
f 93 94 96
f 93 96 95
f 91 95 96
f 91 96 92
f 89 90 94
f 89 94 93
f 98 100 104
f 98 104 102
f 97 101 103
f 97 103 99
f 97 99 100
f 97 100 98
f 101 102 104
f 101 104 103
f 99 103 104
f 99 104 100
f 97 98 102
f 97 102 101
f 105 106 116
f 105 116 115
f 106 107 117
f 106 117 116
f 107 108 118
f 107 118 117
f 108 109 119
f 108 119 118
f 109 110 120
f 109 120 119
f 110 111 121
f 110 121 120
f 111 112 122
f 111 122 121
f 112 113 123
f 112 123 122
f 113 114 124
f 113 124 123
f 114 105 115
f 114 115 124
f 126 128 132
f 126 132 130
f 125 129 131
f 125 131 127
f 125 127 128
f 125 128 126
f 129 130 132
f 129 132 131
f 127 131 132
f 127 132 128
f 125 126 130
f 125 130 129
f 134 136 140
f 134 140 138
f 133 137 139
f 133 139 135
f 133 135 136
f 133 136 134
f 137 138 140
f 137 140 139
f 135 139 140
f 135 140 136
f 133 134 138
f 133 138 137
f 141 142 152
f 141 152 151
f 142 143 153
f 142 153 152
f 143 144 154
f 143 154 153
f 144 145 155
f 144 155 154
f 145 146 156
f 145 156 155
f 146 147 157
f 146 157 156
f 147 148 158
f 147 158 157
f 148 149 159
f 148 159 158
f 149 150 160
f 149 160 159
f 150 141 151
f 150 151 160
f 162 164 168
f 162 168 166
f 161 165 167
f 161 167 163
f 161 163 164
f 161 164 162
f 165 166 168
f 165 168 167
f 163 167 168
f 163 168 164
f 161 162 166
f 161 166 165
f 170 172 176
f 170 176 174
f 169 173 175
f 169 175 171
f 169 171 172
f 169 172 170
f 173 174 176
f 173 176 175
f 171 175 176
f 171 176 172
f 169 170 174
f 169 174 173
f 177 178 188
f 177 188 187
f 178 179 189
f 178 189 188
f 179 180 190
f 179 190 189
f 180 181 191
f 180 191 190
f 181 182 192
f 181 192 191
f 182 183 193
f 182 193 192
f 183 184 194
f 183 194 193
f 184 185 195
f 184 195 194
f 185 186 196
f 185 196 195
f 186 177 187
f 186 187 196
f 198 200 204
f 198 204 202
f 197 201 203
f 197 203 199
f 197 199 200
f 197 200 198
f 201 202 204
f 201 204 203
f 199 203 204
f 199 204 200
f 197 198 202
f 197 202 201
f 206 208 212
f 206 212 210
f 205 209 211
f 205 211 207
f 205 207 208
f 205 208 206
f 209 210 212
f 209 212 211
f 207 211 212
f 207 212 208
f 205 206 210
f 205 210 209
f 213 214 224
f 213 224 223
f 214 215 225
f 214 225 224
f 215 216 226
f 215 226 225
f 216 217 227
f 216 227 226
f 217 218 228
f 217 228 227
f 218 219 229
f 218 229 228
f 219 220 230
f 219 230 229
f 220 221 231
f 220 231 230
f 221 222 232
f 221 232 231
f 222 213 223
f 222 223 232
f 234 236 240
f 234 240 238
f 233 237 239
f 233 239 235
f 233 235 236
f 233 236 234
f 237 238 240
f 237 240 239
f 235 239 240
f 235 240 236
f 233 234 238
f 233 238 237
f 242 244 248
f 242 248 246
f 241 245 247
f 241 247 243
f 241 243 244
f 241 244 242
f 245 246 248
f 245 248 247
f 243 247 248
f 243 248 244
f 241 242 246
f 241 246 245
f 249 250 260
f 249 260 259
f 250 251 261
f 250 261 260
f 251 252 262
f 251 262 261
f 252 253 263
f 252 263 262
f 253 254 264
f 253 264 263
f 254 255 265
f 254 265 264
f 255 256 266
f 255 266 265
f 256 257 267
f 256 267 266
f 257 258 268
f 257 268 267
f 258 249 259
f 258 259 268
f 270 272 276
f 270 276 274
f 269 273 275
f 269 275 271
f 269 271 272
f 269 272 270
f 273 274 276
f 273 276 275
f 271 275 276
f 271 276 272
f 269 270 274
f 269 274 273
f 278 280 284
f 278 284 282
f 277 281 283
f 277 283 279
f 277 279 280
f 277 280 278
f 281 282 284
f 281 284 283
f 279 283 284
f 279 284 280
f 277 278 282
f 277 282 281
f 285 286 296
f 285 296 295
f 286 287 297
f 286 297 296
f 287 288 298
f 287 298 297
f 288 289 299
f 288 299 298
f 289 290 300
f 289 300 299
f 290 291 301
f 290 301 300
f 291 292 302
f 291 302 301
f 292 293 303
f 292 303 302
f 293 294 304
f 293 304 303
f 294 285 295
f 294 295 304
f 306 308 312
f 306 312 310
f 305 309 311
f 305 311 307
f 305 307 308
f 305 308 306
f 309 310 312
f 309 312 311
f 307 311 312
f 307 312 308
f 305 306 310
f 305 310 309
f 314 316 320
f 314 320 318
f 313 317 319
f 313 319 315
f 313 315 316
f 313 316 314
f 317 318 320
f 317 320 319
f 315 319 320
f 315 320 316
f 313 314 318
f 313 318 317
f 321 322 332
f 321 332 331
f 322 323 333
f 322 333 332
f 323 324 334
f 323 334 333
f 324 325 335
f 324 335 334
f 325 326 336
f 325 336 335
f 326 327 337
f 326 337 336
f 327 328 338
f 327 338 337
f 328 329 339
f 328 339 338
f 329 330 340
f 329 340 339
f 330 321 331
f 330 331 340
f 342 344 348
f 342 348 346
f 341 345 347
f 341 347 343
f 341 343 344
f 341 344 342
f 345 346 348
f 345 348 347
f 343 347 348
f 343 348 344
f 341 342 346
f 341 346 345
f 350 352 356
f 350 356 354
f 349 353 355
f 349 355 351
f 349 351 352
f 349 352 350
f 353 354 356
f 353 356 355
f 351 355 356
f 351 356 352
f 349 350 354
f 349 354 353
f 357 358 368
f 357 368 367
f 358 359 369
f 358 369 368
f 359 360 370
f 359 370 369
f 360 361 371
f 360 371 370
f 361 362 372
f 361 372 371
f 362 363 373
f 362 373 372
f 363 364 374
f 363 374 373
f 364 365 375
f 364 375 374
f 365 366 376
f 365 376 375
f 366 357 367
f 366 367 376
f 378 380 384
f 378 384 382
f 377 381 383
f 377 383 379
f 377 379 380
f 377 380 378
f 381 382 384
f 381 384 383
f 379 383 384
f 379 384 380
f 377 378 382
f 377 382 381
f 386 388 392
f 386 392 390
f 385 389 391
f 385 391 387
f 385 387 388
f 385 388 386
f 389 390 392
f 389 392 391
f 387 391 392
f 387 392 388
f 385 386 390
f 385 390 389
f 393 394 404
f 393 404 403
f 394 395 405
f 394 405 404
f 395 396 406
f 395 406 405
f 396 397 407
f 396 407 406
f 397 398 408
f 397 408 407
f 398 399 409
f 398 409 408
f 399 400 410
f 399 410 409
f 400 401 411
f 400 411 410
f 401 402 412
f 401 412 411
f 402 393 403
f 402 403 412
f 414 416 420
f 414 420 418
f 413 417 419
f 413 419 415
f 413 415 416
f 413 416 414
f 417 418 420
f 417 420 419
f 415 419 420
f 415 420 416
f 413 414 418
f 413 418 417
f 422 424 428
f 422 428 426
f 421 425 427
f 421 427 423
f 421 423 424
f 421 424 422
f 425 426 428
f 425 428 427
f 423 427 428
f 423 428 424
f 421 422 426
f 421 426 425
f 429 430 440
f 429 440 439
f 430 431 441
f 430 441 440
f 431 432 442
f 431 442 441
f 432 433 443
f 432 443 442
f 433 434 444
f 433 444 443
f 434 435 445
f 434 445 444
f 435 436 446
f 435 446 445
f 436 437 447
f 436 447 446
f 437 438 448
f 437 448 447
f 438 429 439
f 438 439 448
f 450 452 456
f 450 456 454
f 449 453 455
f 449 455 451
f 449 451 452
f 449 452 450
f 453 454 456
f 453 456 455
f 451 455 456
f 451 456 452
f 449 450 454
f 449 454 453
f 458 460 464
f 458 464 462
f 457 461 463
f 457 463 459
f 457 459 460
f 457 460 458
f 461 462 464
f 461 464 463
f 459 463 464
f 459 464 460
f 457 458 462
f 457 462 461
f 465 466 476
f 465 476 475
f 466 467 477
f 466 477 476
f 467 468 478
f 467 478 477
f 468 469 479
f 468 479 478
f 469 470 480
f 469 480 479
f 470 471 481
f 470 481 480
f 471 472 482
f 471 482 481
f 472 473 483
f 472 483 482
f 473 474 484
f 473 484 483
f 474 465 475
f 474 475 484
f 486 488 492
f 486 492 490
f 485 489 491
f 485 491 487
f 485 487 488
f 485 488 486
f 489 490 492
f 489 492 491
f 487 491 492
f 487 492 488
f 485 486 490
f 485 490 489
f 494 496 500
f 494 500 498
f 493 497 499
f 493 499 495
f 493 495 496
f 493 496 494
f 497 498 500
f 497 500 499
f 495 499 500
f 495 500 496
f 493 494 498
f 493 498 497
f 501 502 512
f 501 512 511
f 502 503 513
f 502 513 512
f 503 504 514
f 503 514 513
f 504 505 515
f 504 515 514
f 505 506 516
f 505 516 515
f 506 507 517
f 506 517 516
f 507 508 518
f 507 518 517
f 508 509 519
f 508 519 518
f 509 510 520
f 509 520 519
f 510 501 511
f 510 511 520
f 522 524 528
f 522 528 526
f 521 525 527
f 521 527 523
f 521 523 524
f 521 524 522
f 525 526 528
f 525 528 527
f 523 527 528
f 523 528 524
f 521 522 526
f 521 526 525
f 530 532 536
f 530 536 534
f 529 533 535
f 529 535 531
f 529 531 532
f 529 532 530
f 533 534 536
f 533 536 535
f 531 535 536
f 531 536 532
f 529 530 534
f 529 534 533
f 538 540 544
f 538 544 542
f 537 541 543
f 537 543 539
f 537 539 540
f 537 540 538
f 541 542 544
f 541 544 543
f 539 543 544
f 539 544 540
f 537 538 542
f 537 542 541
f 546 548 552
f 546 552 550
f 545 549 551
f 545 551 547
f 545 547 548
f 545 548 546
f 549 550 552
f 549 552 551
f 547 551 552
f 547 552 548
f 545 546 550
f 545 550 549
f 553 554 555
f 553 555 556
f 554 555 558
f 553 557 556
f 553 554 558
f 553 558 557
f 556 557 558
f 556 558 555
